<?xml version="1.0" encoding="UTF-8"?>
<!-- Generator: Adobe Illustrator 22.0.1, SVG Export Plug-In . SVG Version: 6.00 Build 0)  -->
<svg version="1.1" id="Capa_1" xmlns="http://www.w3.org/2000/svg" xmlns:xlink="http://www.w3.org/1999/xlink" x="0px" y="0px" viewBox="0 0 120 64.3" style="enable-background:new 0 0 120 64.3;" xml:space="preserve">
<style type="text/css">
	.st0{fill:#2F1A49;}
	.st1{fill:#6F7170;}
</style>
<g>
	<path class="st0" d="M47.7,49.5h3.2c0.6,0,1.1,0,1.4,0.1c0.3,0.1,0.6,0.2,0.8,0.3c0.2,0.2,0.5,0.4,0.6,0.7c0.2,0.3,0.2,0.6,0.2,0.9   c0,0.4-0.1,0.7-0.3,1c-0.2,0.3-0.5,0.6-0.8,0.7c0.5,0.1,0.9,0.4,1.1,0.7c0.3,0.3,0.4,0.8,0.4,1.2c0,0.4-0.1,0.7-0.3,1.1   c-0.2,0.3-0.4,0.6-0.7,0.8c-0.3,0.2-0.7,0.3-1.1,0.4c-0.3,0-0.9,0-2,0.1h-2.7V49.5z M49.3,50.8v1.9h1.1c0.6,0,1,0,1.2,0   c0.3,0,0.5-0.1,0.7-0.3c0.2-0.2,0.2-0.4,0.2-0.6c0-0.2-0.1-0.5-0.2-0.6c-0.1-0.2-0.3-0.3-0.6-0.3c-0.2,0-0.6,0-1.4,0H49.3z    M49.3,54v2.2h1.5c0.6,0,1,0,1.1,0c0.2,0,0.4-0.2,0.6-0.3c0.2-0.2,0.2-0.4,0.2-0.7c0-0.2-0.1-0.4-0.2-0.6c-0.1-0.2-0.3-0.3-0.5-0.4   c-0.2-0.1-0.7-0.1-1.4-0.1H49.3z"/>
	<path class="st0" d="M59.2,55.7l1.5,0.3c-0.2,0.6-0.5,1-0.9,1.3c-0.4,0.3-1,0.4-1.6,0.4c-1,0-1.8-0.3-2.3-1c-0.4-0.5-0.6-1.2-0.6-2   c0-1,0.3-1.7,0.8-2.3c0.5-0.5,1.1-0.8,1.9-0.8c0.9,0,1.6,0.3,2.1,0.9c0.5,0.6,0.7,1.5,0.7,2.6H57c0,0.5,0.1,0.8,0.4,1.1   c0.2,0.3,0.5,0.4,0.9,0.4c0.2,0,0.4-0.1,0.6-0.2C59,56.2,59.1,56,59.2,55.7z M59.3,54.1c0-0.4-0.1-0.8-0.3-1   c-0.2-0.2-0.5-0.3-0.8-0.3c-0.3,0-0.6,0.1-0.8,0.4c-0.2,0.2-0.3,0.6-0.3,1H59.3z"/>
	<path class="st0" d="M63.2,53.5l-1.4-0.3c0.2-0.6,0.4-1,0.8-1.3c0.4-0.3,1-0.4,1.7-0.4c0.7,0,1.2,0.1,1.5,0.2   c0.3,0.2,0.6,0.4,0.7,0.6s0.2,0.7,0.2,1.4l0,1.8c0,0.5,0,0.9,0.1,1.1c0,0.2,0.1,0.5,0.3,0.8h-1.5c0-0.1-0.1-0.3-0.1-0.5   c0-0.1,0-0.2-0.1-0.2c-0.3,0.3-0.5,0.4-0.8,0.6c-0.3,0.1-0.6,0.2-1,0.2c-0.6,0-1.1-0.2-1.4-0.5c-0.3-0.3-0.5-0.7-0.5-1.2   c0-0.3,0.1-0.6,0.2-0.9c0.2-0.3,0.4-0.5,0.7-0.6c0.3-0.1,0.7-0.3,1.2-0.4c0.7-0.1,1.2-0.3,1.5-0.4v-0.2c0-0.3-0.1-0.5-0.2-0.6   c-0.1-0.1-0.4-0.2-0.8-0.2c-0.3,0-0.5,0.1-0.6,0.2C63.5,53,63.3,53.2,63.2,53.5z M65.3,54.7c-0.2,0.1-0.5,0.1-0.9,0.2   c-0.4,0.1-0.7,0.2-0.8,0.3c-0.2,0.1-0.3,0.3-0.3,0.5c0,0.2,0.1,0.4,0.2,0.6s0.4,0.2,0.6,0.2c0.3,0,0.5-0.1,0.8-0.3   c0.2-0.1,0.3-0.3,0.4-0.5c0-0.1,0.1-0.4,0.1-0.8V54.7z"/>
	<path class="st0" d="M72.2,57.5v-0.9c-0.2,0.3-0.5,0.6-0.8,0.7c-0.3,0.2-0.7,0.3-1.1,0.3c-0.4,0-0.7-0.1-1.1-0.3   c-0.3-0.2-0.5-0.4-0.7-0.7c-0.1-0.3-0.2-0.7-0.2-1.3v-3.7h1.5v2.7c0,0.8,0,1.3,0.1,1.5c0.1,0.2,0.2,0.3,0.3,0.4   c0.2,0.1,0.3,0.2,0.6,0.2c0.3,0,0.5-0.1,0.7-0.2c0.2-0.1,0.4-0.3,0.4-0.5c0.1-0.2,0.1-0.7,0.1-1.6v-2.5h1.5v5.8H72.2z"/>
	<path class="st0" d="M77.9,51.7v1.2h-1.1v2.4c0,0.5,0,0.8,0,0.8c0,0.1,0.1,0.1,0.1,0.2c0.1,0.1,0.2,0.1,0.3,0.1   c0.1,0,0.4,0,0.6-0.1l0.1,1.2c-0.4,0.2-0.8,0.2-1.2,0.2c-0.3,0-0.5,0-0.8-0.1c-0.2-0.1-0.4-0.2-0.5-0.4c-0.1-0.1-0.2-0.3-0.2-0.6   c0-0.2,0-0.5,0-1.1v-2.5h-0.7v-1.2h0.7v-1.2l1.6-0.9v2.1H77.9z"/>
	<path class="st0" d="M78.3,51.7h1.6l1.4,4.2l1.4-4.2h1.6l-2.1,5.6l-0.4,1c-0.1,0.3-0.3,0.6-0.4,0.8c-0.1,0.2-0.3,0.3-0.4,0.4   c-0.2,0.1-0.4,0.2-0.6,0.3c-0.2,0.1-0.5,0.1-0.8,0.1c-0.3,0-0.6,0-0.9-0.1l-0.1-1.2c0.2,0,0.5,0.1,0.7,0.1c0.4,0,0.6-0.1,0.8-0.3   c0.2-0.2,0.3-0.5,0.4-0.8L78.3,51.7z"/>
	<path class="st0" d="M95.6,56.5l-0.9,1.2c-0.5-0.2-0.9-0.5-1.3-0.9c-0.3,0.3-0.7,0.5-1,0.6c-0.4,0.1-0.8,0.2-1.3,0.2   c-1,0-1.8-0.3-2.3-0.8c-0.4-0.4-0.6-0.9-0.6-1.5c0-0.5,0.2-1,0.5-1.4c0.3-0.4,0.8-0.8,1.4-1.1c-0.3-0.3-0.5-0.6-0.6-0.9   c-0.1-0.3-0.2-0.6-0.2-0.8c0-0.5,0.2-0.9,0.6-1.2c0.4-0.3,0.9-0.5,1.7-0.5c0.7,0,1.2,0.2,1.6,0.5c0.4,0.4,0.6,0.8,0.6,1.3   c0,0.3-0.1,0.6-0.3,0.9c-0.2,0.3-0.6,0.6-1.2,1l1.1,1.5c0.1-0.2,0.2-0.5,0.3-0.9L95,54c-0.1,0.5-0.3,0.9-0.4,1.1   c-0.1,0.2-0.2,0.4-0.3,0.6c0.2,0.2,0.4,0.3,0.7,0.5C95.2,56.4,95.4,56.5,95.6,56.5z M90.7,53.8c-0.4,0.2-0.6,0.4-0.8,0.6   c-0.2,0.3-0.3,0.5-0.3,0.8c0,0.3,0.1,0.6,0.3,0.8c0.2,0.2,0.5,0.3,0.9,0.3c0.2,0,0.5,0,0.7-0.1c0.2-0.1,0.5-0.3,0.7-0.5L90.7,53.8z    M91.3,52.2l0.4-0.3c0.3-0.2,0.5-0.5,0.5-0.7c0-0.2-0.1-0.4-0.2-0.5c-0.1-0.1-0.3-0.2-0.6-0.2c-0.2,0-0.4,0.1-0.6,0.2   c-0.1,0.1-0.2,0.3-0.2,0.4c0,0.2,0.1,0.4,0.4,0.7L91.3,52.2z"/>
	<path class="st0" d="M99.3,54.9l1.6-0.2c0.1,0.5,0.3,0.9,0.6,1.2c0.3,0.2,0.7,0.4,1.2,0.4c0.5,0,0.9-0.1,1.2-0.3   c0.3-0.2,0.4-0.5,0.4-0.8c0-0.2-0.1-0.4-0.2-0.5c-0.1-0.1-0.3-0.3-0.6-0.3c-0.2-0.1-0.6-0.2-1.3-0.4c-0.9-0.2-1.5-0.5-1.8-0.8   c-0.5-0.4-0.7-1-0.7-1.6c0-0.4,0.1-0.8,0.3-1.2c0.2-0.4,0.6-0.6,1-0.8c0.4-0.2,1-0.3,1.6-0.3c1,0,1.8,0.2,2.3,0.7   c0.5,0.4,0.8,1,0.8,1.8l-1.6,0.1c-0.1-0.4-0.2-0.7-0.4-0.9c-0.2-0.2-0.6-0.3-1-0.3c-0.5,0-0.8,0.1-1.1,0.3   c-0.2,0.1-0.3,0.3-0.3,0.5c0,0.2,0.1,0.4,0.2,0.5c0.2,0.2,0.7,0.4,1.5,0.5c0.8,0.2,1.4,0.4,1.8,0.6c0.4,0.2,0.7,0.5,0.9,0.8   c0.2,0.3,0.3,0.8,0.3,1.3c0,0.5-0.1,0.9-0.4,1.3c-0.3,0.4-0.6,0.7-1.1,0.9c-0.5,0.2-1.1,0.3-1.8,0.3c-1,0-1.8-0.2-2.4-0.7   C99.7,56.5,99.4,55.8,99.3,54.9z"/>
	<path class="st0" d="M107.2,51.7h1.4v0.9c0.2-0.3,0.4-0.5,0.8-0.7c0.3-0.2,0.7-0.3,1.1-0.3c0.7,0,1.3,0.3,1.7,0.8   c0.5,0.5,0.7,1.3,0.7,2.2c0,1-0.2,1.7-0.7,2.3c-0.5,0.5-1.1,0.8-1.7,0.8c-0.3,0-0.6-0.1-0.9-0.2c-0.3-0.1-0.5-0.3-0.8-0.7v2.9h-1.5   V51.7z M108.7,54.5c0,0.7,0.1,1.1,0.4,1.5c0.3,0.3,0.6,0.5,1,0.5c0.4,0,0.7-0.1,0.9-0.4c0.2-0.3,0.4-0.8,0.4-1.4   c0-0.6-0.1-1.1-0.4-1.4s-0.6-0.4-0.9-0.4c-0.4,0-0.7,0.1-0.9,0.4C108.8,53.5,108.7,53.9,108.7,54.5z"/>
	<rect x="99.5" y="4.4" class="st0" width="6" height="42.8"/>
	<path class="st0" d="M62.5,16.4c-1.2,0-2.5,0-3.7,0c-0.5,0-1.1,0-1.6,0c-0.1,0-0.2,0-0.4,0V17c0,4.9,0,9.8,0,14.7c0,1-0.1,2-0.4,3   c-1.4,4.5-5.7,7-10.1,6.5c-2.4-0.3-4.5-1.4-6-3.3c-1.5-1.7-2.2-3.8-2.2-6c0-5,0-9.9,0-14.9v-0.5h-6.1v0.4c0,4.9,0,9.9,0,14.8   c0,1.2,0.1,2.4,0.4,3.6c2,8.5,10.4,13.7,18.9,11.4C58,45.1,62.9,39,62.9,31.9c0-5,0-10.1,0-15.1C62.9,16.6,62.9,16.4,62.5,16.4   C62.6,16.4,62.6,16.4,62.5,16.4"/>
	<path class="st0" d="M9.4,16.5c-0.6,0-1.1,0-1.7,0.1c-3.8,0.5-6.8,3.5-7.5,7.2c-0.1,0.4-0.1,0.9-0.2,1.3v1c0,0.1,0.1,0.2,0.1,0.3   c0.2,2.6,1.4,4.7,3.4,6.4c1.7,1.4,3.6,2,5.8,2c2.7,0,5.4,0,8.1,0c1.4,0,2.7,0,4.1,0c0.2,0,0.4,0,0.6,0c2,0.4,3,2.2,2.4,4.1   c-0.4,1.3-1.6,2.1-2.9,2.1c-6,0-12.1,0-18.1,0c-0.3,0-0.4,0.1-0.4,0.4c0,1.7,0,3.5,0,5.2c0,0.3,0.1,0.4,0.4,0.4c6,0,12,0,18.1,0   c0.8,0,1.6-0.1,2.3-0.3c3.9-1,6.8-4.6,6.8-8.8c0-2.9-1.1-5.2-3.3-7.1c-1.7-1.4-3.7-2.1-5.9-2.1c-2,0-4.1,0-6.1,0c-2,0-4.1,0-6.1,0   c-0.3,0-0.7,0-1-0.1c-1.3-0.4-2.4-1.7-2.2-3.4c0.2-1.7,1.4-2.8,3.1-2.8c6,0,12,0,18,0h0.4v-6h-0.5c-2.7,0-5.4,0-8.1,0   C15.8,16.5,12.6,16.5,9.4,16.5"/>
	<g>
		<g>
			<path class="st0" d="M108.8,9V5.8h1.4c0.3,0,0.6,0,0.8,0.1c0.2,0.1,0.3,0.2,0.4,0.3c0.1,0.1,0.1,0.3,0.1,0.5     c0,0.2-0.1,0.4-0.2,0.6c-0.1,0.2-0.4,0.3-0.6,0.3c0.1,0.1,0.3,0.2,0.3,0.3c0.1,0.1,0.2,0.3,0.4,0.5l0.4,0.6h-0.8l-0.5-0.7     c-0.2-0.3-0.3-0.4-0.3-0.5c-0.1-0.1-0.1-0.1-0.2-0.1c-0.1,0-0.2,0-0.3,0h-0.1V9H108.8z M109.4,7.2h0.5c0.3,0,0.5,0,0.6,0     c0.1,0,0.1-0.1,0.2-0.1c0-0.1,0.1-0.1,0.1-0.2c0-0.1,0-0.2-0.1-0.3c-0.1-0.1-0.1-0.1-0.2-0.1c-0.1,0-0.2,0-0.5,0h-0.5V7.2z"/>
		</g>
		<g>
			<path class="st0" d="M110.1,10.4c-1.6,0-3-1.3-3-3c0-1.6,1.3-3,3-3s3,1.3,3,3C113,9,111.7,10.4,110.1,10.4z M110.1,4.9     c-1.4,0-2.5,1.1-2.5,2.5c0,1.4,1.1,2.5,2.5,2.5s2.5-1.1,2.5-2.5C112.5,6,111.4,4.9,110.1,4.9z"/>
		</g>
	</g>
	<g>
		<path class="st1" d="M82.7,15c2.1,0,4.1,0.4,6,1.2c1.8,0.8,3.5,1.9,4.8,3.3c1.4,1.4,2.5,3,3.3,4.8c0.8,1.8,1.2,3.8,1.2,6v15.4    H82.7c-2.1,0-4.1-0.4-5.9-1.2c-1.9-0.8-3.5-1.9-4.9-3.3c-1.4-1.4-2.5-3-3.3-4.9c-0.8-1.9-1.2-3.8-1.2-5.9c0-2.1,0.4-4.1,1.2-6    c0.8-1.8,1.9-3.5,3.3-4.8s3-2.5,4.9-3.3C78.7,15.4,80.6,15,82.7,15z M91.9,39.5v-9.3c0-1.3-0.2-2.5-0.7-3.6    c-0.5-1.1-1.1-2.1-2-2.9c-0.8-0.8-1.8-1.5-2.9-2C85.2,21.3,84,21,82.7,21c-1.3,0-2.5,0.2-3.6,0.7c-1.1,0.5-2.1,1.1-3,2    c-0.8,0.8-1.5,1.8-2,2.9c-0.5,1.1-0.7,2.3-0.7,3.6c0,1.3,0.2,2.5,0.7,3.6c0.5,1.1,1.1,2.1,2,3c0.8,0.8,1.8,1.5,3,2    c1.1,0.5,2.3,0.7,3.6,0.7H91.9z"/>
		<path class="st0" d="M79.7,16.5c2.1,0,4.1,0.4,6,1.2c1.8,0.8,3.5,1.9,4.8,3.3c1.4,1.4,2.5,3,3.3,4.8c0.8,1.8,1.2,3.8,1.2,6v15.4    H79.7c-2.1,0-4.1-0.4-5.9-1.2c-1.9-0.8-3.5-1.9-4.9-3.3c-1.4-1.4-2.5-3-3.3-4.9c-0.8-1.9-1.2-3.8-1.2-5.9c0-2.1,0.4-4.1,1.2-6    c0.8-1.8,1.9-3.5,3.3-4.8c1.4-1.4,3-2.5,4.9-3.3C75.7,16.9,77.6,16.5,79.7,16.5z M89,41.1v-9.3c0-1.3-0.2-2.5-0.7-3.6    c-0.5-1.1-1.1-2.1-2-2.9c-0.8-0.8-1.8-1.5-2.9-2c-1.1-0.5-2.3-0.7-3.6-0.7c-1.3,0-2.5,0.2-3.6,0.7c-1.1,0.5-2.1,1.1-3,2    c-0.8,0.8-1.5,1.8-2,2.9c-0.5,1.1-0.7,2.3-0.7,3.6s0.2,2.5,0.7,3.6c0.5,1.1,1.1,2.1,2,3c0.8,0.8,1.8,1.5,3,2    c1.1,0.5,2.3,0.7,3.6,0.7H89z"/>
	</g>
	<path class="st0" d="M119.8,53.2c-0.2-0.4-0.4-0.7-0.7-1c-0.3-0.3-0.6-0.5-1-0.7c-0.4-0.2-0.8-0.2-1.2-0.2c-0.4,0-0.9,0.1-1.2,0.2   c-0.4,0.2-0.7,0.4-1,0.7c-0.3,0.3-0.5,0.6-0.7,1c-0.2,0.4-0.2,0.8-0.2,1.2c0,0.4,0.1,0.9,0.2,1.2c0.2,0.4,0.4,0.7,0.7,1   c0.3,0.3,0.6,0.5,1,0.7c0.4,0.2,0.8,0.2,1.2,0.2h3.2v-3.2C120,54,119.9,53.6,119.8,53.2z M118.5,54.4v1.8h-1.7   c-0.2,0-0.5,0-0.7-0.1c-0.2-0.1-0.4-0.2-0.6-0.4c-0.2-0.2-0.3-0.3-0.4-0.6c-0.1-0.2-0.1-0.4-0.1-0.7c0-0.2,0-0.5,0.1-0.7   c0.1-0.2,0.2-0.4,0.4-0.6c0.2-0.2,0.3-0.3,0.6-0.4c0.2-0.1,0.4-0.1,0.7-0.1c0.2,0,0.5,0,0.7,0.1c0.2,0.1,0.4,0.2,0.6,0.4   c0.2,0.2,0.3,0.3,0.4,0.6C118.5,54,118.5,54.2,118.5,54.4z"/>
</g>
</svg>